<?xml version="1.0" encoding="UTF-8" standalone="no"?>
<!-- Created with Inkscape (http://www.inkscape.org/) -->

<svg
   width="48"
   height="48"
   viewBox="0 0 48 48"
   version="1.1"
   id="svg1"
   inkscape:version="1.4 (e7c3feb100, 2024-10-09)"
   sodipodi:docname="batterie_icon_50_charging.svg"
   xmlns:inkscape="http://www.inkscape.org/namespaces/inkscape"
   xmlns:sodipodi="http://sodipodi.sourceforge.net/DTD/sodipodi-0.dtd"
   xmlns="http://www.w3.org/2000/svg"
   xmlns:svg="http://www.w3.org/2000/svg">
  <sodipodi:namedview
     id="namedview1"
     pagecolor="#505050"
     bordercolor="#ffffff"
     borderopacity="1"
     inkscape:showpageshadow="0"
     inkscape:pageopacity="0"
     inkscape:pagecheckerboard="1"
     inkscape:deskcolor="#d1d1d1"
     inkscape:document-units="px"
     showgrid="false"
     inkscape:zoom="13.848749"
     inkscape:cx="20.507267"
     inkscape:cy="24.370432"
     inkscape:window-width="1898"
     inkscape:window-height="984"
     inkscape:window-x="10"
     inkscape:window-y="60"
     inkscape:window-maximized="0"
     inkscape:current-layer="svg1"
     showguides="false">
    <inkscape:grid
       id="grid1"
       units="px"
       originx="0"
       originy="0"
       spacingx="1"
       spacingy="1"
       empcolor="#0099e5"
       empopacity="0.30196078"
       color="#0099e5"
       opacity="0.14901961"
       empspacing="12"
       enabled="true"
       visible="false" />
  </sodipodi:namedview>
  <defs
     id="defs1">
    <inkscape:path-effect
       effect="fillet_chamfer"
       id="path-effect8"
       is_visible="true"
       lpeversion="1"
       nodesatellites_param="F,0,0,1,0,1.3929289,0,1 @ F,0,1,1,0,1.3929289,0,1 @ F,0,1,1,0,1.3929289,0,1 @ F,0,0,1,0,0,0,1 @ F,0,1,1,0,1.3929289,0,1 @ F,0,1,1,0,1.3929289,0,1 @ F,0,0,1,0,0,0,1 @ F,0,1,1,0,1.3929289,0,1 | F,0,0,1,0,0,0,1 @ F,0,0,1,0,0,0,1 @ F,0,0,1,0,0,0,1 @ F,0,0,1,0,0,0,1"
       radius="0"
       unit="px"
       method="auto"
       mode="F"
       chamfer_steps="1"
       flexible="false"
       use_knot_distance="true"
       apply_no_radius="true"
       apply_with_radius="true"
       only_selected="false"
       hide_knots="false" />
    <inkscape:path-effect
       effect="fillet_chamfer"
       id="path-effect7"
       is_visible="true"
       lpeversion="1"
       nodesatellites_param="F,0,0,1,0,0,0,1 @ F,0,0,1,0,0,0,1 @ F,0,0,1,0,0,0,1 @ F,0,0,1,0,0,0,1"
       radius="0"
       unit="px"
       method="auto"
       mode="F"
       chamfer_steps="1"
       flexible="false"
       use_knot_distance="true"
       apply_no_radius="true"
       apply_with_radius="true"
       only_selected="false"
       hide_knots="false" />
  </defs>
  <path
     d="m 16.271484,36 1.089844,-2 H 2 V 14 h 18.357422 l 1.845703,-2 H 1.3925781 A 1.3929289,1.3929289 0 0 0 0,13.392578 V 34.607422 A 1.3929289,1.3929289 0 0 0 1.3925781,36 Z"
     style="fill:#ffffff;stroke:#ffffff;stroke-width:0;stroke-linecap:round;stroke-linejoin:round;stroke-opacity:0;paint-order:stroke fill markers"
     id="path7" />
  <path
     d="m 31.730469,12 -1.089844,2 H 42 V 34 H 27.638672 l -1.845703,2 H 42.607422 A 1.3929289,1.3929289 0 0 0 44,34.607422 V 29 h 2.607422 A 1.3929289,1.3929289 0 0 0 48,27.607422 V 20.392578 A 1.3929289,1.3929289 0 0 0 46.607422,19 H 44 V 13.392578 A 1.3929289,1.3929289 0 0 0 42.607422,12 Z"
     style="fill:#ffffff;stroke:#ffffff;stroke-width:0;stroke-linecap:round;stroke-linejoin:round;stroke-opacity:0;paint-order:stroke fill markers"
     id="path6" />
  <path
     d="M 40,20.603516 29.484375,32 H 40 Z"
     style="opacity:0.25;fill:#ffffff;stroke:#ffffff;stroke-width:0;stroke-linecap:round;stroke-linejoin:round;stroke-opacity:0;paint-order:stroke fill markers"
     id="path5" />
  <path
     d="M 29.550781,16 27.367187,20.003906 40,19.998047 V 16 Z"
     style="opacity:0.25;fill:#ffffff;stroke:#ffffff;stroke-width:0;stroke-linecap:round;stroke-linejoin:round;stroke-opacity:0;paint-order:stroke fill markers"
     id="path4" />
  <path
     d="M 18.453125,32 20.634766,27.998047 7.4414062,27.996094 18.511719,16 H 4 v 16 z"
     style="opacity:1;fill:#ffffff;stroke:#ffffff;stroke-width:0;stroke-linecap:round;stroke-linejoin:round;stroke-opacity:0;paint-order:stroke fill markers"
     id="path2" />
  <path
     d="M 36,0 24.923828,12 23.076172,14 21.230469,16 12,26 h 10 2 L 22,29.666016 20.726562,32 19.636719,34 18.544922,36 12,48 23.076172,36 24.923828,34 26.769531,32 36,22 H 24 l 3.273437,-6 1.089844,-2 1.091797,-2 z"
     style="fill:#ffffff;stroke:#d10000;stroke-width:0;stroke-linecap:round;paint-order:stroke fill markers"
     id="path3" />
</svg>
